# xmcd
# 
# Track frame offsets:
#     150
#     21785
#     43820
#     66780
#     86980
#     109497
#     128567
#     150292
#     171012
#     190050
#     211340
# 
# Disc length: 3102
# 
# Revision: 2
# Processed by: cddbd v1.5.2PL0 Copyright (c) Steve Scherf et al.
# Submitted via: fre:ac v1.0.17
# 
DISCID=900c1c0b
DTITLE=Jeffrey Osborne - Only Human
DYEAR=1990
DGENRE=R&B
TTITLE0=If My Brother's In Trouble
TTITLE1=Only Human
TTITLE2=Good Things Come To Those Who Wait
TTITLE3=The Morning After I Made Love To You
TTITLE4=Lay Your Head
TTITLE5=Baby Wait A Minute
TTITLE6=Sending You A Love Song
TTITLE7=Feel Like Making Love
TTITLE8=Back In Your Arms
TTITLE9=Nitetime
TTITLE10=Getting Better All The Time
EXTD=
EXTT0=
EXTT1=
EXTT2=
EXTT3=
EXTT4=
EXTT5=
EXTT6=
EXTT7=
EXTT8=
EXTT9=
EXTT10=
PLAYORDER=
